<svg width="16" height="16" viewBox="0 0 16 16" fill="none" xmlns="http://www.w3.org/2000/svg">
<path d="M10.1663 8.00033C10.1663 6.80324 9.19737 5.83351 8.00033 5.83333C6.80314 5.83333 5.83333 6.80314 5.83333 8.00033C5.83351 9.19737 6.80324 10.1663 8.00033 10.1663C8.80294 10.1662 9.50102 9.72944 9.87533 9.08138C9.88082 9.07196 9.88687 9.06299 9.8929 9.05404C10.0669 8.74212 10.1663 8.38303 10.1663 8.00033ZM8.00033 1.83333C6.06 1.83333 4.3283 2.73162 3.19759 4.13412C3.62571 5.30313 4.19113 6.41655 4.88119 7.44857C5.13878 5.98038 6.407 4.86153 7.94271 4.83431C9.66611 4.46384 11.4403 4.4057 13.18 4.65755C12.0813 2.95919 10.1721 1.83345 8.00033 1.83333ZM1.83333 8.00033C1.83349 11.0828 4.09925 13.6399 7.05501 14.0951C7.88419 13.1462 8.57888 12.0924 9.12044 10.9622C8.77219 11.094 8.39482 11.1663 8.00033 11.1663C6.84637 11.1663 5.83994 10.5481 5.28646 9.6263C4.13355 8.29377 3.20329 6.78402 2.52669 5.16146C2.08467 6.01145 1.83333 6.97668 1.83333 8.00033ZM11.1663 8.00033C11.1663 8.56474 11.0168 9.09329 10.7581 9.55208L10.7552 9.56185C10.2143 11.2278 9.38242 12.7831 8.30111 14.1585C11.5652 14.0013 14.1662 11.3031 14.1663 8.00033C14.1663 7.21342 14.0175 6.46105 13.7484 5.76888C12.5126 5.52343 11.251 5.44827 9.99935 5.54427C10.7117 6.12484 11.1663 7.00929 11.1663 8.00033ZM15.1663 8.00033C15.1662 11.9562 11.9562 15.1662 8.00033 15.1663C7.73708 15.1663 7.47695 15.1511 7.22103 15.1234C7.19899 15.122 7.17736 15.1189 7.1556 15.1146C3.59721 14.6962 0.833498 11.6705 0.833334 8.00033C0.833334 6.43105 1.34013 4.97995 2.19662 3.79915C2.21514 3.76555 2.23715 3.73409 2.26302 3.7054C3.57066 1.96188 5.65467 0.833334 8.00033 0.833334C10.9171 0.833464 13.4261 2.57981 14.5443 5.08236C14.5607 5.11051 14.5736 5.14026 14.5843 5.17122C14.9581 6.03937 15.1663 6.99563 15.1663 8.00033Z" fill="#292D32"/>
</svg>
