<svg width="16" height="16" viewBox="0 0 16 16" fill="none" xmlns="http://www.w3.org/2000/svg">
<path fill-rule="evenodd" clip-rule="evenodd" d="M13.2498 5C13.9402 5 14.4998 5.55964 14.4998 6.25V6.75C14.4998 6.88801 14.6118 6.9999 14.7498 7C15.4402 7 15.9998 7.55964 15.9998 8.25C15.9998 8.94036 15.4402 9.5 14.7498 9.5H12.7723C12.6094 10.5661 12.3346 11.5407 11.869 12.3633C11.4058 13.1815 10.7561 13.8506 9.85919 14.3096C8.96816 14.7655 7.86086 15 6.49982 15C4.5091 15 3.10281 14.3226 2.15411 13.3389C1.21758 12.3677 0.763778 11.1373 0.589662 10.0762C0.441436 9.1726 1.19678 8.50011 1.99982 8.5H11.8875C11.954 7.79901 11.9858 7.04424 11.9959 6.24414C12.0047 5.5616 12.5571 5.0001 13.2498 5ZM1.99982 9.5C1.69853 9.5001 1.54645 9.72778 1.57697 9.91406C1.72855 10.838 2.11704 11.8597 2.87384 12.6445C3.61863 13.4168 4.75751 14 6.49982 14C7.74931 14 8.68975 13.7839 9.40314 13.4189C10.1107 13.0568 10.6232 12.5337 10.9988 11.8701C11.3723 11.2103 11.6103 10.4125 11.7606 9.5H1.99982ZM13.2498 6C13.1145 6.00011 12.9969 6.11141 12.9949 6.25684C12.9852 7.02461 12.9574 7.77783 12.8924 8.5H14.7498C14.8879 8.5 14.9998 8.38807 14.9998 8.25C14.9998 8.11193 14.8879 8 14.7498 8C14.0596 7.9999 13.4998 7.44029 13.4998 6.75V6.25C13.4998 6.11193 13.3879 6 13.2498 6Z" fill="black"/>
<path fill-rule="evenodd" clip-rule="evenodd" d="M10.1024 1.00488C10.6065 1.05621 10.9998 1.48232 10.9998 2V7L10.9949 7.10254C10.9885 7.16574 10.9755 7.22696 10.9578 7.28613C10.9434 7.33451 10.9244 7.38078 10.9031 7.42578C10.901 7.4304 10.8986 7.43487 10.8963 7.43945C10.8736 7.48572 10.8485 7.53037 10.8192 7.57227C10.8146 7.57873 10.8092 7.58447 10.8045 7.59082C10.7435 7.67372 10.6709 7.74699 10.5877 7.80762C10.5828 7.81119 10.578 7.81488 10.5731 7.81836C10.5326 7.84674 10.4897 7.87132 10.4451 7.89355C10.4376 7.89733 10.4303 7.90169 10.4227 7.90527C10.3772 7.92656 10.33 7.94467 10.2811 7.95898C10.2614 7.96474 10.2416 7.97005 10.2215 7.97461C10.2143 7.97623 10.2072 7.97803 10.2 7.97949C10.168 7.986 10.1354 7.99175 10.1024 7.99512L9.99982 8H2.99982L2.89728 7.99512C2.39324 7.9437 1.99982 7.51761 1.99982 7V5C1.99982 4.44778 2.44762 4.0001 2.99982 4H6.99982V2C6.99982 1.44778 7.44762 1.0001 7.99982 1H9.99982L10.1024 1.00488ZM5.49982 7H6.99982V5H5.49982V7ZM7.99982 7H9.99982V5H7.99982V7ZM2.99982 7H4.49982V5H2.99982V7ZM7.99982 4H9.99982V2H7.99982V4Z" fill="black"/>
</svg>
