<svg width="16" height="16" viewBox="0 0 16 16" fill="none" xmlns="http://www.w3.org/2000/svg">
<path d="M8.00028 7C8.55243 7.00015 9.00028 7.44781 9.00028 8C9.00028 8.55219 8.55243 8.99985 8.00028 9C7.44799 9 7.00028 8.55228 7.00028 8C7.00028 7.44772 7.44799 7 8.00028 7Z" fill="black"/>
<path fill-rule="evenodd" clip-rule="evenodd" d="M8.00028 1C8.95161 1.00012 10.0849 1.61413 10.9602 2.75879C10.9728 2.77524 10.9839 2.79289 10.9964 2.80957C11.0172 2.81206 11.0382 2.81371 11.0589 2.81641C12.4879 3.00214 13.5861 3.67615 14.0618 4.5C14.5212 5.29563 14.4938 6.16273 14.3772 6.78613C14.318 7.10276 14.2327 7.37312 14.1624 7.56445C14.1271 7.6604 14.0954 7.73826 14.0716 7.79297C14.0596 7.82033 14.0496 7.84266 14.0423 7.8584L14.0286 7.88574C13.9062 8.13323 13.6062 8.23557 13.3587 8.11328C13.1421 8.00619 13.0378 7.76299 13.097 7.53809L13.1321 7.44336C13.1328 7.44188 13.1343 7.43925 13.136 7.43555C13.14 7.42705 13.1463 7.41259 13.1546 7.39355C13.1714 7.35489 13.1961 7.29523 13.2239 7.21973C13.2799 7.06755 13.3472 6.85182 13.3938 6.60254C13.4891 6.09334 13.4869 5.50305 13.1966 5C12.9842 4.63218 12.4752 4.21619 11.6888 3.97266C12.1818 5.02725 12.5003 6.36555 12.5003 8C12.5003 9.63404 12.1816 10.9719 11.6888 12.0264C12.4751 11.7828 12.9842 11.3678 13.1966 11C13.3347 10.761 13.6401 10.6793 13.8792 10.8174C14.1182 10.9555 14.1998 11.2609 14.0618 11.5C13.5861 12.3238 12.4879 12.9979 11.0589 13.1836C11.0382 13.1863 11.0172 13.187 10.9964 13.1895C10.9837 13.2063 10.973 13.2246 10.9602 13.2412C10.0849 14.3859 8.95161 14.9999 8.00028 15C7.08158 15 6.34416 14.5426 5.86258 14.1299C5.61808 13.9203 5.42669 13.7113 5.29618 13.5547C5.2307 13.4761 5.17929 13.4094 5.14383 13.3613C5.12616 13.3374 5.11179 13.3179 5.10184 13.3037L5.08621 13.2803L5.08524 13.2783L5.08426 13.2773C4.93109 13.0476 4.99317 12.7372 5.22293 12.584C5.42395 12.4501 5.68672 12.4809 5.85184 12.6445L5.91629 12.7227C5.91723 12.7241 5.91874 12.727 5.92118 12.7305C5.92661 12.7382 5.93611 12.7508 5.94852 12.7676C5.97357 12.8015 6.01232 12.8523 6.06375 12.9141C6.16756 13.0386 6.32039 13.205 6.51297 13.3701C6.90638 13.7073 7.41931 14 8.00028 14C8.42494 13.9999 9.03891 13.7671 9.64286 13.208C8.48324 13.1077 7.16539 12.7144 5.75028 11.8975C4.33459 11.0801 3.33403 10.1351 2.66727 9.18066C2.48492 9.98357 2.59162 10.6322 2.80399 11C2.94201 11.2391 2.85952 11.5446 2.62039 11.6826C2.38127 11.8206 2.07582 11.7391 1.93778 11.5C1.46215 10.6762 1.42725 9.38796 1.98075 8.05762C1.98872 8.03845 1.99791 8.0192 2.00614 8C1.99791 7.9808 1.98872 7.96155 1.98075 7.94238C1.42725 6.61204 1.46215 5.32384 1.93778 4.5C2.39712 3.7044 3.16186 3.29471 3.76004 3.08398C4.06375 2.97704 4.34044 2.9156 4.54129 2.88086C4.64217 2.86342 4.7261 2.85239 4.78543 2.8457C4.81481 2.84239 4.83852 2.8394 4.85575 2.83789L4.88407 2.83594H4.88797C5.16343 2.81832 5.40146 3.02725 5.41922 3.30273C5.43477 3.54384 5.27638 3.75618 5.05204 3.81738L4.95243 3.83398C4.95078 3.83411 4.94703 3.8336 4.94266 3.83398C4.93323 3.83482 4.91751 3.83653 4.89676 3.83887C4.85484 3.8436 4.79133 3.85254 4.71219 3.86621C4.55244 3.89384 4.33221 3.94315 4.09305 4.02734C3.60434 4.19945 3.0945 4.49686 2.80399 5C2.5917 5.36769 2.48521 6.01588 2.66727 6.81836C3.33403 5.86411 4.33492 4.9197 5.75028 4.10254C7.16543 3.28556 8.48322 2.89134 9.64286 2.79102C9.03907 2.23226 8.42483 2.0001 8.00028 2C7.72413 2 7.50028 1.77614 7.50028 1.5C7.50028 1.22386 7.72413 1 8.00028 1ZM10.4417 3.76758C9.30526 3.72741 7.87498 4.03079 6.25028 4.96875C4.62472 5.90727 3.64685 6.9953 3.11356 8C3.64685 9.0047 4.62472 10.0927 6.25028 11.0312C7.87499 11.9692 9.30526 12.2716 10.4417 12.2314C11.0453 11.2672 11.5003 9.87732 11.5003 8C11.5003 6.12222 11.0455 4.73181 10.4417 3.76758Z" fill="black"/>
</svg>
