<svg width="16" height="16" viewBox="0 0 16 16" fill="none" xmlns="http://www.w3.org/2000/svg">
<path d="M4.64648 4.64648C4.84175 4.45122 5.15825 4.45122 5.35352 4.64648L8.35352 7.64648C8.54878 7.84175 8.54878 8.15825 8.35352 8.35352L5.35352 11.3535C5.15825 11.5488 4.84175 11.5488 4.64648 11.3535C4.45122 11.1583 4.45122 10.8417 4.64648 10.6465L7.29297 8L4.64648 5.35352C4.45122 5.15825 4.45122 4.84175 4.64648 4.64648Z" fill="black"/>
<path d="M8.14648 4.64648C8.34175 4.45122 8.65825 4.45122 8.85352 4.64648L11.8535 7.64648C12.0488 7.84175 12.0488 8.15825 11.8535 8.35352L8.85352 11.3535C8.65825 11.5488 8.34175 11.5488 8.14648 11.3535C7.95122 11.1583 7.95122 10.8417 8.14648 10.6465L10.793 8L8.14648 5.35352C7.95122 5.15825 7.95122 4.84175 8.14648 4.64648Z" fill="black"/>
<path fill-rule="evenodd" clip-rule="evenodd" d="M8 1C11.866 1 15 4.13401 15 8C15 11.866 11.866 15 8 15C4.13401 15 1 11.866 1 8C1 4.13401 4.13401 1 8 1ZM8 2C4.68629 2 2 4.68629 2 8C2 11.3137 4.68629 14 8 14C11.3137 14 14 11.3137 14 8C14 4.68629 11.3137 2 8 2Z" fill="black"/>
</svg>
