<svg width="16" height="16" viewBox="0 0 16 16" fill="none" xmlns="http://www.w3.org/2000/svg">
<path d="M4.02723 1.50133C4.16503 1.49753 4.34966 1.51011 4.5829 1.56187C5.01439 1.6577 5.61039 1.88768 6.39442 2.38902C7.75211 2.05833 9.16952 2.05849 10.5272 2.38902C11.3114 1.88748 11.9081 1.65775 12.3397 1.56187C12.5729 1.5101 12.7576 1.49756 12.8954 1.50133C12.9639 1.50322 13.0206 1.50886 13.0653 1.51597C13.0876 1.51953 13.1076 1.52302 13.1239 1.52672C13.1318 1.5285 13.139 1.53088 13.1454 1.53258C13.1487 1.53343 13.1523 1.53468 13.1552 1.5355C13.1564 1.53586 13.1579 1.53615 13.1591 1.53648H13.161L13.162 1.53746C13.161 1.5422 13.1511 1.57851 13.0692 1.85484L13.162 1.53746C13.3044 1.5797 13.4218 1.68322 13.4804 1.81968C13.8067 2.58134 13.8602 3.42892 13.6386 4.22105C14.1929 4.90405 14.4997 5.75913 14.4999 6.64488C14.4997 8.43262 13.9535 9.61302 13.0643 10.3607C12.4246 10.8984 11.6483 11.1739 10.8856 11.3265C10.9153 11.3913 10.9454 11.4565 10.9696 11.5238C11.0888 11.8549 11.1363 12.2071 11.1141 12.558L11.1151 14.3246C11.1149 14.6005 10.8911 14.8246 10.6151 14.8246C10.3392 14.8244 10.1153 14.6004 10.1151 14.3246V12.558C10.1151 12.5451 10.1161 12.5317 10.1171 12.5189C10.1345 12.2964 10.1038 12.0726 10.0282 11.8627C9.9525 11.6525 9.83306 11.4605 9.67762 11.3002C9.54505 11.1634 9.50215 10.9629 9.5663 10.7836C9.63077 10.6041 9.79188 10.4767 9.98134 10.4554C10.9191 10.3509 11.7874 10.1274 12.4208 9.59507C13.0299 9.08293 13.4998 8.21631 13.4999 6.64488C13.4997 5.91416 13.2185 5.21127 12.7147 4.68199C12.583 4.5436 12.5418 4.34154 12.6083 4.16246C12.8059 3.63284 12.8233 3.05651 12.6679 2.5189C12.6346 2.52421 12.5971 2.52944 12.5565 2.53843C12.2392 2.60896 11.6943 2.80625 10.8934 3.34312C10.7733 3.42345 10.6238 3.4483 10.4843 3.4105C9.15953 3.05151 7.7631 3.05149 6.43837 3.4105C6.29885 3.44821 6.14928 3.42353 6.02919 3.34312C5.22811 2.80614 4.68341 2.60891 4.3661 2.53843C4.32518 2.52936 4.2873 2.52424 4.2538 2.5189C4.0985 3.0564 4.11674 3.63298 4.31434 4.16246C4.38092 4.34158 4.33969 4.54356 4.2079 4.68199C3.70054 5.21518 3.41883 5.92449 3.42274 6.6605V6.66343C3.4229 8.2209 3.8918 9.08211 4.50184 9.59507C5.13693 10.1289 6.00693 10.3581 6.94716 10.475C7.13517 10.4983 7.29419 10.6254 7.35731 10.8041C7.42026 10.9828 7.37677 11.1825 7.24501 11.3187C7.09161 11.4774 6.9729 11.667 6.89735 11.8744C6.82194 12.0816 6.79112 12.3028 6.80653 12.5228C6.80732 12.5342 6.8075 12.5465 6.80751 12.558V14.3246C6.8073 14.6005 6.58348 14.8245 6.30751 14.8246C6.03162 14.8244 5.80771 14.6004 5.80751 14.3246V13.7337C5.03367 13.8806 4.29192 13.8312 3.61512 13.5482C2.74936 13.1861 2.05448 12.4747 1.55263 11.4711C1.42916 11.2241 1.5294 10.9237 1.77626 10.8002C2.02325 10.6767 2.32366 10.7768 2.44716 11.0238C2.86836 11.8661 3.40518 12.3772 4.00087 12.6263C4.5132 12.8405 5.11633 12.8787 5.80751 12.7132V12.558C5.78782 12.2094 5.83837 11.8598 5.9579 11.5316C5.98184 11.4659 6.00985 11.4015 6.03895 11.3382C5.27576 11.1789 4.4986 10.899 3.85829 10.3607C3.02563 9.66055 2.49304 8.58535 2.42958 6.98961L2.42274 6.66343C2.41851 5.77143 2.72496 4.90896 3.28309 4.22105C3.06152 3.42904 3.11501 2.58121 3.4413 1.81968L3.49598 1.72398C3.55994 1.63548 3.65212 1.56923 3.75868 1.53746L3.90126 2.01695C3.77323 1.58532 3.75953 1.54187 3.75868 1.53746L3.76063 1.53648H3.76259C3.76386 1.53611 3.76604 1.53585 3.76747 1.5355C3.77017 1.53475 3.77325 1.53341 3.77626 1.53258C3.78278 1.53087 3.79073 1.52855 3.79872 1.52672C3.81497 1.52302 3.83508 1.51952 3.85731 1.51597C3.90199 1.50886 3.95875 1.50322 4.02723 1.50133Z" fill="black"/>
</svg>
