<svg width="16" height="16" viewBox="0 0 16 16" fill="none" xmlns="http://www.w3.org/2000/svg">
<path fill-rule="evenodd" clip-rule="evenodd" d="M7.72108 0.619402C7.87543 0.531354 8.06515 0.531728 8.21905 0.620576L14.2814 4.12086C14.4352 4.20978 14.5304 4.374 14.5313 4.55169L14.5618 11.4972C14.5626 11.6774 14.4662 11.8442 14.3098 11.9337L8.27896 15.3806C8.12461 15.4686 7.9349 15.4683 7.78099 15.3794L1.71865 11.8791C1.56481 11.7902 1.46963 11.626 1.46878 11.4483L1.43822 4.50279C1.43741 4.32256 1.5338 4.15575 1.69028 4.06633L7.72108 0.619402ZM11.7598 8.51307L13.3775 11.315L13.5606 11.2103L13.5374 6.07047L11.7598 8.51307ZM9.0361 13.7955L12.509 11.8107L6.96212 2.20327L3.48923 4.18805L9.0361 13.7955ZM2.70555 11.2936L8.03232 14.3694L8.16764 14.2913L4.78629 8.43462L2.70555 11.2936ZM11.2129 7.56586L13.2935 4.70473L7.96639 1.63022L7.83058 1.7075L11.2129 7.56586ZM2.46049 9.92966L4.23892 7.48656L2.62076 4.68382L2.43808 4.78929L2.46049 9.92966Z" fill="black"/>
</svg>
