<svg width="16" height="16" viewBox="0 0 16 16" fill="none" xmlns="http://www.w3.org/2000/svg">
<path fill-rule="evenodd" clip-rule="evenodd" d="M15 1.5C15 1.22386 14.7761 1 14.5 1H1.5C1.22386 1 1 1.22386 1 1.5V14.5C1 14.7761 1.22386 15 1.5 15H8H8.5C8.77614 15 9 14.7761 9 14.5V7.5C9 7.22386 9.22386 7 9.5 7H10.5C10.7761 7 11 7.22386 11 7.5V14.5C11 14.7761 11.2239 15 11.5 15H12H14.5C14.7761 15 15 14.7761 15 14.5V1.5ZM2 2.5C2 2.22386 2.22386 2 2.5 2H13.5C13.7761 2 14 2.22386 14 2.5V13.5C14 13.7761 13.7761 14 13.5 14H12.5C12.2239 14 12 13.7761 12 13.5V6.5C12 6.22386 11.7761 6 11.5 6H8.497C8.22203 6 7.99866 6.22203 7.99701 6.49699L7.95486 13.503C7.95321 13.778 7.72984 14 7.45487 14H2.5C2.22386 14 2 13.7761 2 13.5V2.5Z" fill="black"/>
</svg>
