<svg width="16" height="16" viewBox="0 0 16 16" fill="none" xmlns="http://www.w3.org/2000/svg">
<path fill-rule="evenodd" clip-rule="evenodd" d="M7.00006 6.26788C7.95664 5.71565 9.17984 6.04337 9.73212 6.99993C10.2844 7.9565 9.9566 9.17968 9.00006 9.73199C8.04348 10.2843 6.8203 9.95652 6.26801 8.99993C5.71573 8.04335 6.04348 6.82017 7.00006 6.26788ZM7.50006 7.13391C7.02177 7.41005 6.8579 8.02164 7.13404 8.49993C7.41018 8.97823 8.02177 9.1421 8.50006 8.86596C8.97831 8.5898 9.14222 7.97821 8.86609 7.49993C8.58996 7.02166 7.97835 6.85782 7.50006 7.13391Z" fill="black"/>
<path fill-rule="evenodd" clip-rule="evenodd" d="M4.25006 1.50474C5.2021 0.955195 6.59386 1.40617 7.99884 2.55641C9.40434 1.4053 10.7977 0.954946 11.75 1.50478C12.7023 2.05461 13.0074 3.48609 12.7133 5.27874C14.4128 5.92038 15.5 6.90035 15.5 7.99997C15.5 9.09967 14.4129 10.0803 12.7132 10.7219C13.0071 12.5142 12.7022 13.9453 11.7501 14.4951C10.7978 15.0449 9.40455 14.5946 7.99911 13.4436C6.59407 14.5939 5.20219 15.0447 4.25013 14.4951C3.29801 13.9454 2.99135 12.5143 3.28513 10.7221C1.58618 10.0805 0.500128 9.09931 0.500128 7.9999C0.500198 6.90062 1.58609 5.91972 3.28475 5.27809C2.99093 3.48587 3.29792 2.05446 4.25006 1.50474ZM9.95124 11.3795C9.56367 11.891 9.15946 12.354 8.7501 12.7619C8.86196 12.8501 8.97219 12.934 9.08226 13.0111C10.238 13.8196 10.9494 13.8027 11.2501 13.6291C11.5507 13.4554 11.9211 12.8477 11.7987 11.4427C11.7871 11.309 11.7686 11.1718 11.7482 11.031C11.1905 11.1814 10.5877 11.2996 9.95124 11.3795ZM4.2008 11.4429C4.07843 12.8479 4.44966 13.4554 4.75029 13.629C5.05099 13.8024 5.76217 13.8197 6.91744 13.0115C7.02736 12.9346 7.13773 12.8504 7.24944 12.7623C6.83989 12.3542 6.43583 11.8907 6.0481 11.3788C5.41089 11.2989 4.8073 11.1812 4.24912 11.0304C4.22866 11.1714 4.21247 11.3091 4.2008 11.4429ZM12.4983 6.26775C12.3498 6.82633 12.1507 7.40782 11.9014 7.9994C12.1508 8.59114 12.3502 9.1728 12.4989 9.73155C12.6312 9.67879 12.759 9.62542 12.8807 9.56862C14.1587 8.97208 14.4998 8.34723 14.4998 8.00006C14.4998 7.65291 14.1586 7.02821 12.8805 6.43163C12.7586 6.37474 12.6309 6.32059 12.4983 6.26775ZM7.9995 3.9013C7.80752 4.09031 7.61544 4.29398 7.42492 4.51156C7.42637 4.51151 7.42782 4.51135 7.42928 4.5113C7.14701 4.83346 6.86571 5.18418 6.59515 5.5646L6.59261 5.56606C6.1274 5.61026 5.68255 5.678 5.26203 5.76143C5.26273 5.76033 5.26424 5.75973 5.26493 5.75863C5.1993 5.77165 5.1345 5.78622 5.07009 5.80008C5.01262 5.81246 4.95558 5.82485 4.89911 5.8379C4.74562 5.87333 4.59568 5.91034 4.44998 5.95062C4.48951 6.10292 4.53358 6.25771 4.58153 6.4148C4.5866 6.4313 4.59246 6.4476 4.59762 6.46415C4.62727 6.55971 4.65724 6.65647 4.69024 6.75348C4.691 6.75205 4.6914 6.75042 4.69216 6.74899C4.83003 7.15479 4.99372 7.57374 5.18805 7.99853L5.18831 8.00289C4.99415 8.42727 4.8301 8.84573 4.69228 9.25115C4.69151 9.2497 4.69145 9.24787 4.69068 9.24643C4.6643 9.32396 4.63998 9.40138 4.61576 9.478C4.60342 9.51683 4.59079 9.55538 4.57897 9.59396C4.53213 9.74797 4.48932 9.89985 4.45054 10.0493C4.60401 10.0917 4.76204 10.1311 4.92408 10.1683C4.95006 10.1742 4.97634 10.1792 5.00253 10.185C5.08912 10.2042 5.17653 10.2242 5.26539 10.2419C5.26452 10.2405 5.26297 10.2395 5.2621 10.2381C5.68231 10.3215 6.12682 10.3893 6.59163 10.4335L6.59297 10.4339C6.86392 10.8148 7.14574 11.166 7.42849 11.4884C7.42704 11.4884 7.42557 11.4888 7.42413 11.4887C7.61461 11.7062 7.80736 11.9092 7.9993 12.0982L8.00063 12.0986C8.07037 12.0299 8.13775 11.957 8.20741 11.8845C8.23658 11.8541 8.26641 11.824 8.29555 11.793C8.36329 11.7208 8.42997 11.6461 8.49745 11.5704C8.52208 11.5428 8.54844 11.5165 8.57303 11.4884L8.57085 11.4886C8.73518 11.3008 8.90009 11.1043 9.06121 10.8965L9.40534 10.4339L9.4057 10.4326C9.87014 10.3884 10.3141 10.3205 10.7341 10.2374C10.7334 10.2385 10.7337 10.2402 10.733 10.2414C10.804 10.2273 10.8738 10.2106 10.9433 10.1955C10.9951 10.1843 11.0466 10.1735 11.0975 10.1617C11.2517 10.1261 11.4024 10.0893 11.5488 10.0489C11.5116 9.90566 11.4695 9.76054 11.4247 9.61314C11.4059 9.55151 11.3851 9.49 11.365 9.42772C11.3457 9.36788 11.3283 9.30693 11.3077 9.24652C11.3071 9.24765 11.3054 9.2482 11.3048 9.24932C11.1669 8.84379 11.0043 8.42472 10.8103 8.00014C11.0045 7.57476 11.1676 7.15505 11.3057 6.74885C11.3064 6.75029 11.3074 6.75165 11.3081 6.75308C11.3371 6.668 11.3627 6.58279 11.3891 6.49884C11.3973 6.47282 11.4062 6.4471 11.4142 6.4212C11.4631 6.26203 11.5087 6.10544 11.5487 5.95111C11.3936 5.90823 11.2337 5.86843 11.0699 5.83066C11.0508 5.8263 11.0314 5.82308 11.0123 5.8188C10.9205 5.79815 10.8278 5.77636 10.7334 5.75766C10.7343 5.75904 10.735 5.76051 10.7358 5.76189C10.3152 5.67838 9.87031 5.6104 9.40498 5.56614C9.13371 5.18492 8.85185 4.83351 8.56898 4.51071C8.57059 4.51076 8.5722 4.51123 8.57382 4.51129C8.52268 4.45289 8.47007 4.39672 8.41874 4.34034C8.38213 4.30013 8.34588 4.26009 8.3092 4.22091C8.2058 4.11048 8.10312 4.0033 7.9995 3.9013ZM3.11861 6.43173C1.84107 7.02814 1.50042 7.65266 1.50029 7.99981C1.50029 8.34694 1.84073 8.97216 3.11877 9.56873C3.24025 9.62542 3.36758 9.67959 3.4996 9.73225C3.64817 9.17352 3.84803 8.59187 4.09741 8.00011C3.84804 7.40839 3.6485 6.82668 3.49993 6.26796C3.36783 6.32065 3.24015 6.37502 3.11861 6.43173ZM11.2498 2.3709C10.9492 2.19735 10.2375 2.1803 9.08184 2.98886C8.97184 3.06585 8.86116 3.14903 8.74936 3.2372C9.15895 3.64525 9.56291 4.10886 9.9507 4.62072C10.5876 4.70057 11.1908 4.81896 11.7488 4.96956C11.7693 4.82862 11.7868 4.69128 11.7985 4.5575C11.9209 3.15231 11.5505 2.54447 11.2498 2.3709ZM4.75006 2.37077C4.44943 2.54434 4.079 3.15201 4.2014 4.55717C4.21304 4.6907 4.23019 4.82788 4.25059 4.96854C4.8082 4.81804 5.41112 4.69991 6.04756 4.62005C6.43507 4.10851 6.83939 3.64546 7.24869 3.23759C7.13716 3.14966 7.02762 3.0656 6.91787 2.98881C5.7623 2.1803 5.05078 2.19726 4.75006 2.37077Z" fill="black"/>
</svg>
