<svg width="16" height="16" viewBox="0 0 16 16" fill="none" xmlns="http://www.w3.org/2000/svg">
<path fill-rule="evenodd" clip-rule="evenodd" d="M10 1C11.7761 1 14 2.72386 14 5.5C14 6.82235 13.7338 7.67572 13.291 8.33984C13.0751 8.66374 12.8277 8.92654 12.582 9.16406C12.3992 9.34082 12.2482 9.47814 12.0889 9.62793L13.9639 14.3145C14.0255 14.4685 14.0071 14.6429 13.9141 14.7803C13.821 14.9177 13.6659 15 13.5 15H4.5C3.92571 15 3.29763 14.8571 2.80469 14.4463C2.29588 14.0221 2 13.3701 2 12.5V1.5C2 1.22386 2.22386 1 2.5 1H10ZM3.42871 13.6631C3.43447 13.6681 3.43951 13.6739 3.44531 13.6787C3.70236 13.8928 4.07445 14 4.5 14H5.00879C5.05462 13.9258 5.11766 13.8236 5.19434 13.7002C5.36325 13.4283 5.59948 13.0498 5.87012 12.624C6.40997 11.7747 7.09161 10.7271 7.64355 9.95801C8.19311 9.19231 8.94874 8.2103 9.56348 7.42383C9.77817 7.14916 9.97657 6.89779 10.1436 6.68652C9.87945 6.54867 9.64244 6.32706 9.49805 6.01367L9.04785 5.06445C9.04232 5.05278 9.0378 5.04039 9.0332 5.02832L8.63281 3.97852L8.62988 3.9707C8.58736 3.85365 8.55714 3.72433 8.53711 3.58887L3.42871 13.6631ZM10.6543 2.30371C10.3689 2.30102 10.0615 2.32987 9.82617 2.41797C9.73724 2.45132 9.61471 2.57469 9.54785 2.86914C9.48352 3.15287 9.50768 3.45644 9.57031 3.62891L9.96094 4.65527L10.4023 5.58594L10.4053 5.59277C10.4608 5.71481 10.5692 5.80203 10.707 5.8418C10.8543 5.88417 10.9818 5.85799 11.043 5.82129C11.2441 5.7006 11.3138 5.60534 11.3379 5.55176C11.3554 5.51263 11.3684 5.45036 11.3301 5.32617L10.8945 4.35547C10.7813 4.1038 10.893 3.8078 11.1445 3.69434C11.3963 3.58109 11.6933 3.69352 11.8066 3.94531L12.2559 4.94531L12.2744 4.99219C12.3789 5.30588 12.3941 5.63946 12.25 5.96094C12.1116 6.26968 11.8562 6.49954 11.5576 6.67871C11.4911 6.7186 11.4204 6.74887 11.3486 6.77539C11.2947 6.84287 11.2185 6.93883 11.125 7.05664C10.9292 7.30325 10.6567 7.64838 10.3506 8.04004C9.7371 8.82491 8.99285 9.7931 8.45605 10.541C7.92163 11.2857 7.25238 12.313 6.71387 13.1602C6.51445 13.4739 6.33408 13.7622 6.18555 14H12.7617L11.0361 9.68555C10.9618 9.49984 11.0051 9.28792 11.1465 9.14648C11.3892 8.90375 11.687 8.63832 11.8867 8.44531C12.1097 8.22974 12.3 8.0237 12.459 7.78516C12.7662 7.32428 13 6.67765 13 5.5C13 3.95109 12.1377 2.86318 11.2012 2.34473C11.1851 2.34312 11.1685 2.34404 11.1523 2.34082C11.1523 2.34082 11.1007 2.33145 11.0068 2.32227C10.9149 2.31328 10.7919 2.30502 10.6543 2.30371ZM3 12.2969L7.75195 2.92578C7.94479 2.54016 8.18926 2.23638 8.46484 2H3V12.2969Z" fill="black"/>
</svg>
