<svg width="16" height="16" viewBox="0 0 16 16" fill="none" xmlns="http://www.w3.org/2000/svg">
<path fill-rule="evenodd" clip-rule="evenodd" d="M11.1753 4.62019C11.3235 4.49346 11.5322 4.46447 11.7094 4.54597C11.8866 4.62767 12.0005 4.805 12.0005 5.00007V11.0001C12.0004 11.1951 11.8866 11.3725 11.7094 11.4542C11.5323 11.5357 11.3235 11.5066 11.1753 11.38L7.67527 8.37996C7.56446 8.28498 7.50049 8.14601 7.50046 8.00007C7.50046 7.85411 7.56445 7.71518 7.67527 7.62019L11.1753 4.62019ZM8.76804 8.00007L11.0005 9.91218V6.08699L8.76804 8.00007Z" fill="black"/>
<path fill-rule="evenodd" clip-rule="evenodd" d="M11.1802 1.11628C11.3327 0.989285 11.5465 0.964015 11.7241 1.05281L14.7241 2.55281C14.8933 2.63758 15.0005 2.81084 15.0005 3.00007V13.0001C15.0004 13.1893 14.8933 13.3626 14.7241 13.4473L11.7241 14.9473C11.5465 15.0361 11.3327 15.0108 11.1802 14.8839L5.50046 10.1505L2.82078 12.3839C2.62221 12.5493 2.32983 12.5362 2.14695 12.3536L0.646949 10.8536C0.547668 10.7543 0.495142 10.6179 0.501441 10.4776C0.507801 10.3374 0.572404 10.2062 0.680152 10.1163L3.21921 8.00007L0.680152 5.88386C0.572428 5.79396 0.507826 5.66271 0.501441 5.52253C0.495127 5.38226 0.547655 5.24585 0.646949 5.14656L2.14695 3.64656L2.22019 3.58601C2.4013 3.4634 2.64702 3.47149 2.82078 3.61628L5.50046 5.84871L11.1802 1.11628ZM5.82078 6.88386C5.63546 7.03829 5.36557 7.03812 5.18015 6.88386L2.53074 4.67585L1.7407 5.46589L4.32078 7.61628C4.43441 7.71127 4.50046 7.85194 4.50046 8.00007C4.50044 8.14821 4.43443 8.28889 4.32078 8.38386L1.7407 10.5333L2.53074 11.3233L5.18015 9.11628L5.25339 9.0655C5.43168 8.96418 5.65857 8.98111 5.82078 9.11628L11.5688 13.9063L14.0005 12.6905V3.30867L11.5688 2.09285L5.82078 6.88386Z" fill="black"/>
</svg>
