<svg width="16" height="16" viewBox="0 0 16 16" fill="none" xmlns="http://www.w3.org/2000/svg">
<path fill-rule="evenodd" clip-rule="evenodd" d="M3.5 7.43084C3.50009 7.23896 3.7074 7.11883 3.87402 7.21404L6.87402 8.92791C6.95187 8.97243 7 9.056 7 9.14568V12.5695L6.99121 12.6379C6.95513 12.7667 6.8192 12.8455 6.68945 12.8127L6.62598 12.7863L3.62598 11.0724C3.54813 11.028 3.50006 10.9443 3.5 10.8547V7.43084ZM4.5 10.4201L6 11.2765V9.57928L4.5 8.72283V10.4201Z" fill="black"/>
<path fill-rule="evenodd" clip-rule="evenodd" d="M12.126 7.21404C12.2926 7.11883 12.4999 7.23896 12.5 7.43084V10.8547C12.4999 10.9443 12.4519 11.028 12.374 11.0724L9.37402 12.7863C9.22826 12.8695 9.05084 12.7881 9.00879 12.6379L9 12.5695V9.14568C9 9.056 9.04813 8.97243 9.12598 8.92791L12.126 7.21404ZM10 9.57928V11.2765L11.5 10.4201V8.72283L10 9.57928Z" fill="black"/>
<path fill-rule="evenodd" clip-rule="evenodd" d="M7.87891 3.06756C7.95427 3.02581 8.04573 3.02581 8.12109 3.06756L12.1064 5.28142C12.2778 5.3767 12.2779 5.62369 12.1064 5.71892L11.7549 5.91326L8.12109 7.93279L8.0625 7.95623C8.02154 7.96679 7.97846 7.96679 7.9375 7.95623L7.87891 7.93279L3.89355 5.71892C3.72213 5.62369 3.72218 5.3767 3.89355 5.28142L7.87891 3.06756ZM5.55762 5.50017L8 6.85564L10.4414 5.50017L8 4.14373L5.55762 5.50017Z" fill="black"/>
<path fill-rule="evenodd" clip-rule="evenodd" d="M7.50391 0.283377C7.81125 0.107827 8.18875 0.107827 8.49609 0.283377L14.4961 3.71209C14.8076 3.8901 14.9999 4.22152 15 4.58025V11.4201L14.9912 11.5529C14.9501 11.8591 14.7687 12.1325 14.4961 12.2883L8.49609 15.717L8.37793 15.7746C8.13592 15.8734 7.86408 15.8734 7.62207 15.7746L7.50391 15.717L1.50391 12.2883C1.23133 12.1325 1.0499 11.8591 1.00879 11.5529L1 11.4201V4.58025C1.00008 4.2665 1.14732 3.97387 1.39258 3.78631L1.50391 3.71209L7.50391 0.283377ZM2 4.58025V11.4201L8 14.8488L14 11.4201V4.58025L8 1.15154L2 4.58025Z" fill="black"/>
</svg>
